<svg width="21" height="20" viewBox="0 0 21 20" fill="none" xmlns="http://www.w3.org/2000/svg">
<path d="M18 4L16.533 5.1C16.1868 5.35964 15.7657 5.5 15.333 5.5H11.975C11.6496 5.50013 11.3322 5.60086 11.0662 5.78839C10.8003 5.97592 10.5988 6.24109 10.4894 6.54756C10.3801 6.85404 10.3681 7.18684 10.4552 7.50038C10.5423 7.81392 10.7242 8.09286 10.976 8.299L12.976 9.935C13.7506 10.5688 14.3544 11.3862 14.7324 12.313C15.1103 13.2397 15.2505 14.2463 15.14 15.241L15.094 15.658C15.0316 16.2179 14.9103 16.7696 14.732 17.304L14.5 18M1 8.5L4.238 7.96C4.55209 7.90757 4.87415 7.9309 5.17741 8.02804C5.48067 8.12518 5.75634 8.29333 5.98151 8.51849C6.20668 8.74366 6.37482 9.01933 6.47196 9.32259C6.5691 9.62585 6.59243 9.94791 6.54 10.262L6.405 11.069C6.2883 11.7729 6.40009 12.4957 6.72401 13.1315C7.04793 13.7673 7.56694 14.2826 8.205 14.602C8.71462 14.8564 9.12208 15.2772 9.35995 15.7948C9.59781 16.3123 9.65181 16.8956 9.513 17.448L9 19.5" stroke="black" stroke-width="2"/>
<path d="M10.5 19C15.4706 19 19.5 14.9706 19.5 10C19.5 5.02944 15.4706 1 10.5 1C5.52944 1 1.5 5.02944 1.5 10C1.5 14.9706 5.52944 19 10.5 19Z" stroke="black" stroke-width="2"/>
</svg>
